<svg xmlns="http://www.w3.org/2000/svg" xmlns:xlink="http://www.w3.org/1999/xlink" width="46" height="46" viewBox="0 0 46 46">
  <defs>
    <filter id="Rectangle_39" x="0" y="0" width="46" height="46" filterUnits="userSpaceOnUse">
      <feOffset dy="3" input="SourceAlpha"/>
      <feGaussianBlur stdDeviation="3" result="blur"/>
      <feFlood flood-opacity="0.161"/>
      <feComposite operator="in" in2="blur"/>
      <feComposite in="SourceGraphic"/>
    </filter>
    <linearGradient id="linear-gradient" x1="-29.438" y1="138.851" x2="-29.412" y2="138.851" gradientUnits="objectBoundingBox">
      <stop offset="0" stop-color="#c8c8c8"/>
      <stop offset="1" stop-color="#cdcdcd"/>
    </linearGradient>
    <linearGradient id="linear-gradient-2" x1="-25.504" y1="80.403" x2="-25.478" y2="80.403" gradientUnits="objectBoundingBox">
      <stop offset="0" stop-color="#d9d9d9"/>
      <stop offset="1" stop-color="#e2e2e2"/>
    </linearGradient>
  </defs>
  <g id="Layer_2" data-name="Layer 2" transform="translate(8.836 5.836)">
    <g id="Layer_1" data-name="Layer 1" transform="translate(0.277 0.277)">
      <g transform="matrix(1, 0, 0, 1, -9.11, -6.11)" filter="url(#Rectangle_39)">
        <rect id="Rectangle_39-2" data-name="Rectangle 39" width="27" height="27" rx="6.48" transform="translate(9.5 6.5)" fill="#fff" stroke="#b63524" stroke-width="1"/>
      </g>
      <g id="Group_18" data-name="Group 18" transform="translate(4.826 7)">
        <path id="Path_8" data-name="Path 8" d="M16.31,16.048H1.087A1.088,1.088,0,0,1,0,14.96V4.087A1.088,1.088,0,0,1,1.087,3H16.31A1.088,1.088,0,0,1,17.4,4.087V14.96A1.088,1.088,0,0,1,16.31,16.048Z" transform="translate(0 -3)" fill="#eaeaea"/>
        <path id="Path_9" data-name="Path 9" d="M2.175,16.048H1.087A1.088,1.088,0,0,1,0,14.96V4.087a1.087,1.087,0,0,1,2.175,0Z" transform="translate(0 -3)" fill="#d54c3f"/>
        <path id="Path_10" data-name="Path 10" d="M21,16.048h1.087a1.088,1.088,0,0,0,1.087-1.087V4.087a1.087,1.087,0,1,0-2.175,0Z" transform="translate(-5.777 -3)" fill="#b63524"/>
        <path id="Path_11" data-name="Path 11" d="M16.932,4.979A1.087,1.087,0,1,0,15.687,3.2L8.7,8.283h0L1.71,3.2A1.087,1.087,0,0,0,.464,4.979h0L.435,4.958,8.7,10.974Zm.029-.021L8.7,10.974Z" transform="translate(0.001 -3)" fill="#de5145"/>
        <path id="Path_12" data-name="Path 12" d="M16.722,3a1.084,1.084,0,0,0-.623.2L9.112,8.283h0L2.123,3.2A1.084,1.084,0,0,0,1.5,3Z" transform="translate(-0.412 -3)" fill="#efefef"/>
        <path id="Path_13" data-name="Path 13" d="M2.305,7.405.473,5.59h0a1.084,1.084,0,0,0,.123.1L.566,5.67l1.74,1.266v.468Z" transform="translate(-0.129 -3.713)" fill="#c64132"/>
        <path id="Path_14" data-name="Path 14" d="M8.316,13.3,3,17.432v-9.4L8.315,13.3Z" transform="translate(-0.825 -4.384)" fill="#e3e3e3"/>
        <path id="Path_15" data-name="Path 15" d="M8.316,13.137,9.524,12.2,3,7.448v.423l5.315,5.264Z" transform="translate(-0.825 -4.224)" fill="url(#linear-gradient)"/>
        <path id="Path_16" data-name="Path 16" d="M14.463,17.271h3.6V7.448L11.541,12.2l-1.208.937Z" transform="translate(-2.843 -4.224)" fill="url(#linear-gradient-2)"/>
      </g>
    </g>
  </g>
</svg>
