<svg xmlns="http://www.w3.org/2000/svg" xmlns:xlink="http://www.w3.org/1999/xlink" width="45" height="45" viewBox="0 0 45 45">
  <defs>
    <filter id="Rectangle_39" x="0" y="0" width="45" height="45" filterUnits="userSpaceOnUse">
      <feOffset dy="3" input="SourceAlpha"/>
      <feGaussianBlur stdDeviation="3" result="blur"/>
      <feFlood flood-opacity="0.161"/>
      <feComposite operator="in" in2="blur"/>
      <feComposite in="SourceGraphic"/>
    </filter>
  </defs>
  <g id="Layer_2" data-name="Layer 2" transform="translate(9.073 6.073)">
    <g id="Layer_1" data-name="Layer 1">
      <g transform="matrix(1, 0, 0, 1, -9.07, -6.07)" filter="url(#Rectangle_39)">
        <rect id="Rectangle_39-2" data-name="Rectangle 39" width="27" height="27" rx="6.48" transform="translate(9 6)" fill="#189d0e"/>
      </g>
      <path id="Path_6" data-name="Path 6" d="M7.09,20.791l.214-.809c.223-.828.456-1.646.67-2.474a.6.6,0,0,0,0-.4,6.809,6.809,0,1,1,2.939,2.865.679.679,0,0,0-.419,0C8.653,20.382,7.462,20.717,7.09,20.791Zm1.591-1.563c.679-.177,1.3-.335,1.925-.5a.558.558,0,0,1,.465.065,5.581,5.581,0,0,0,3.767.716,5.693,5.693,0,1,0-5.869-2.874,1.191,1.191,0,0,1,.13,1.079c-.167.456-.233.967-.419,1.516Z" transform="translate(-0.495 -0.494)" fill="#fff"/>
      <path id="Path_7" data-name="Path 7" d="M15.977,17.408c-1.33-.047-3.451-1.1-4.9-3.618a2.046,2.046,0,0,1,.316-2.614.93.93,0,0,1,.874-.13c.074,0,.149.121.186.2.2.437.381.884.549,1.33.093.242-.074.465-.419.856a.3.3,0,0,0,0,.391,4.651,4.651,0,0,0,2.363,2.028.279.279,0,0,0,.363-.093c.54-.66.6-.856.93-.726,1.377.66,1.479.688,1.488.837a1.5,1.5,0,0,1-1.749,1.535Z" transform="translate(-0.75 -0.767)" fill="#fff"/>
    </g>
  </g>
</svg>
